<svg width="19629" height="7132" viewBox="0 0 19629 7132" fill="none" xmlns="http://www.w3.org/2000/svg">
<path d="M16790.5 5166.99L16795 6116.57L17053.3 6115.35L17311.6 6114.13L17308.3 5409.6L17305 4705.06L17625.9 4703.55L17946.9 4702.03L17950.2 5406.56L17953.5 6111.1L18211.9 6109.88L18470.2 6108.66L18470 5407.17L18471.4 4707.21L18792.4 4705.69L19113.3 4704.17L19119.7 5401.04L19126.2 6097.9L19376.7 6101.31L19628.8 6103.18L19625.3 5364.95C19623.1 4893.22 19615.4 4602.25 19604.3 4564.01C19564.4 4418.69 19484.1 4321.05 19347.6 4252.77L19256.6 4205.72L18021.3 4211.56L16786 4217.4L16790.5 5166.99Z" fill="white"/>
<path d="M15846.3 3704.54L15852.2 3954.17L16107.4 3957.56L16361 3959.42L16359.9 3706.71L16358.7 3454L16100.3 3455.22L15842 3456.44L15846.3 3704.54Z" fill="white"/>
<path d="M15837.5 5131.03L15842 6080.62L16100.3 6079.4L16358.6 6078.18L16354.1 5128.59L16349.7 4179L16091.3 4180.22L15833 4181.44L15837.5 5131.03Z" fill="white"/>
<path d="M13270.5 5152.99L13275 6102.58L13533.3 6101.36L13791.6 6100.14L13788.3 5395.6L13785 4691.07L14259.4 4691.89L14732.2 4694.25L14740.2 5394.17L14746.7 6095.62L15005 6094.4L15263.3 6093.18L15260 5391.71C15258.2 5007.28 15250.3 4651.98 15240.6 4603.01C15219.7 4480.58 15167.6 4384.33 15079.6 4312.76C14938.1 4193.96 14969.4 4196.88 14069.2 4201.13L13266 4203.4L13270.5 5152.99Z" fill="white"/>
<path d="M11137.4 4227.29C11037.4 4276.78 10948.6 4362.97 10898.9 4459.7C10861.7 4530.33 10860.2 4548.71 10861.3 4787.64C10862.4 5020.45 10865.7 5046.47 10898.9 5110.64C10973.2 5255.79 11117.7 5356.2 11290 5382.95C11340.2 5391.91 11590.7 5396.85 11847.5 5395.63L12314 5393.43L12309.8 5485.35L12305.5 5578.8L11843.6 5580.98C11394.3 5583.1 11381.8 5581.63 11370.7 5551.05C11359.6 5522 11345.5 5520.54 11105.9 5521.67L10852.3 5522.87L10860.6 5633.11C10874 5810.71 10976.5 5964.92 11136.6 6042.28L11211.9 6080.22L11846 6077.22C12473.8 6074.25 12480.1 6074.22 12551.9 6038.65C12647.2 5992.25 12745.4 5896.83 12788.8 5807.79C12819.8 5741.78 12822.8 5712.67 12821.7 5475.27C12820.6 5250.12 12815.7 5207.26 12790.5 5161.43C12744.7 5078.94 12661.2 4984.37 12600 4947.9C12486.9 4879.51 12411.8 4872.21 11874.7 4874.75L11369 4877.14L11373.3 4780.63L11377.5 4685.65L11842.5 4678.85L12307.5 4673.59L12312.3 4707.27C12317.2 4742.47 12318.8 4742.46 12574 4741.26L12832.3 4740.04L12827.1 4640.5C12820 4458.27 12708.1 4296.45 12537.1 4220.68L12455.5 4182.77L11835.5 4185.7L11217.1 4188.62L11137.4 4227.29Z" fill="white"/>
<path d="M8278.16 4437L8279.32 4682.05L9015.17 4678.57L9751.02 4675.09L9751.49 4774.65L9751.96 4874.2L9036.46 4877.58C8641.92 4879.45 8310.04 4887.14 8299.11 4894.85C8281.94 4905.66 8279.19 4985.31 8285.42 5311.52C8292 5709.72 8293.6 5717.37 8333.14 5801.42C8385.31 5906.86 8482.85 6005.95 8580.12 6048.38C8652.3 6081.73 8669.52 6081.65 9464.88 6082.48L10275.9 6083.25L10267.6 5312.87C10259.3 4563.95 10257.7 4540.98 10226 4472.21C10181.8 4380.52 10095.2 4287.5 10002.6 4234.33L9928.79 4191.79L9103.68 4191.1L8277 4190.41L8278.16 4437ZM9754.67 5448.55L9755.28 5578.74L9277.77 5580.99L8800.25 5583.25L8799.63 5453.07L8799.02 5322.88L9276.54 5320.62L9754.06 5318.37L9754.67 5448.55Z" fill="white"/>
<path d="M5427.18 3730.12C5427.22 3737.77 5426.19 3852.65 5426.83 3987.43L5426.42 4232.5L5897.7 4234.86L6368.97 4235.7L6373.35 5162.32L6377.72 6088.93L6640.73 6084.63L6902.17 6078.79L6902.51 5155.22L6901.29 4233.18L7370.98 4230.96L7840.67 4228.74L7839.44 3968.37L7838.21 3708L6632.67 3713.7C5970.41 3716.83 5427.15 3723.99 5427.18 3730.12Z" fill="white"/>
<path d="M727.164 176.628C641.437 258.21 441.919 446.012 287.615 593.778C131.739 740.02 3.94297 864.686 3.9719 870.813C4.0153 880.002 68.4016 921.052 349.46 1091.27C580.266 1229.56 657.214 1278.2 950.855 1460.61C1101.6 1554.86 1228.79 1632.37 1236.62 1632.34C1246.01 1632.29 1501.74 1412.06 1540.69 1370.52C1545.36 1365.91 1609.29 1308.93 1684.12 1242.72L1821.34 1124.13L3172.49 1117.75L4525.19 1111.36L4572.36 1152.49C4597.52 1176.88 4671.4 1239.32 4734.29 1294.17C4798.74 1349 4863.2 1405.37 4880.49 1420.6C4933.97 1472.42 5109.99 1614.03 5119.39 1613.99C5124.09 1613.97 5175.61 1583.09 5233.36 1546.06C5291.12 1509.03 5378.53 1453.47 5428.49 1422.61C5562.73 1337.73 5679.82 1265.19 5771.91 1206.55C5976.4 1076.93 6218.38 927.218 6279.28 893.234C6315.18 871.622 6344.82 848.507 6344.79 840.849C6344.75 833.191 6292.83 779.829 6231.51 723.449C6168.61 667.075 6042.82 552.797 5951.61 468.988C5718.88 254.128 5472.03 33.207 5446.9 18.0093C5434.34 10.4105 4404.13 9.15224 3154.75 15.0561L884.584 25.7837L727.164 176.628Z" fill="#F9F9F9"/>
<path d="M1774.66 1304.89C1773.12 1311.03 1676.48 1401.85 1564.24 1505C1450.44 1609.69 1356.93 1702.03 1356.98 1711.22C1357.02 1720.41 1390.39 1824.4 1430.09 1943.68C1469.79 2061.43 1577.77 2381.03 1669.87 2654.76C1760.4 2928.49 1846.12 3176.21 1857.22 3205.26C1868.31 3234.31 1939.76 3443.81 2015.99 3671.66C2092.21 3897.98 2177.96 4153.36 2206.54 4237.46C2235.12 4321.57 2343.08 4638.11 2444.71 4940.89C2660.65 5577.03 2932.17 6379.86 3084.57 6824.84C3143.3 6994.58 3194.04 7129.12 3198.71 7122.97C3204.94 7116.81 3258.99 6957.27 3320.71 6767.06C3382.44 6576.84 3453.46 6363.61 3479.73 6291.5C3504.44 6219.39 3533.75 6125.83 3546.08 6084.41C3558.4 6041.47 3593.88 5927.96 3627.86 5831.31C3661.85 5734.65 3722.04 5550.57 3760.59 5424.8C3800.7 5297.48 3847.02 5159.42 3862.48 5117.99C3877.93 5075.03 3936.58 4895.55 3993.67 4719.14C4050.76 4541.2 4157.27 4217.53 4229.82 3998.16C4438.17 3360.01 4529.25 3085.42 4649.63 2717.26C4711.36 2527.05 4780.82 2316.88 4803.99 2249.38C4873.49 2048.41 4973.73 1724.76 4973.62 1700.25C4973.55 1686.47 4872.88 1587.39 4750.24 1477.69L4525.42 1279.64L3152.35 1284.6C2397.71 1288.16 1777.75 1297.22 1774.66 1304.89Z" fill="white"/>
</svg>
