<svg width="23180" height="7966" viewBox="0 0 23180 7966" fill="none" xmlns="http://www.w3.org/2000/svg">
<path d="M833.845 185.165C735.001 276.561 504.956 486.956 327.042 652.498C147.316 816.333 -0.0333508 955.997 5.66222e-06 962.861C0.0500461 973.155 74.2878 1019.14 398.35 1209.84C664.47 1364.77 753.192 1419.26 1091.76 1623.61C1265.57 1729.2 1412.22 1816.03 1421.25 1816C1432.08 1815.94 1726.94 1569.22 1771.84 1522.68C1777.23 1517.52 1850.94 1453.68 1937.22 1379.51L2095.44 1246.65L3653.32 1239.5L5212.99 1232.35L5267.38 1278.42C5296.39 1305.75 5381.57 1375.7 5454.08 1437.15C5528.4 1498.57 5602.72 1561.73 5622.65 1578.79C5684.32 1636.84 5887.27 1795.49 5898.11 1795.44C5903.53 1795.42 5962.93 1760.83 6029.51 1719.34C6096.11 1677.86 6196.9 1615.61 6254.5 1581.04C6409.28 1485.95 6544.29 1404.68 6650.47 1338.99C6886.24 1193.77 7165.25 1026.05 7235.47 987.979C7276.86 963.767 7311.03 937.871 7311 929.292C7310.95 920.713 7251.09 860.931 7180.39 797.769C7107.86 734.613 6962.83 606.587 6857.66 512.696C6589.32 271.988 6304.7 24.4904 6275.73 7.4644C6261.25 -1.04854 5073.41 -2.45817 3632.87 4.15593L1015.35 16.1741L833.845 185.165Z" fill="#2F2D51"/>
<path d="M2041.59 1448.29C2039.81 1455.16 1928.38 1556.9 1798.97 1672.45C1667.76 1789.73 1559.94 1893.17 1560 1903.46C1560.05 1913.76 1598.52 2030.25 1644.3 2163.87C1690.07 2295.77 1814.57 2653.79 1920.76 2960.43C2025.14 3267.06 2123.98 3544.56 2136.78 3577.1C2149.57 3609.65 2231.95 3844.33 2319.84 4099.57C2407.72 4353.1 2506.59 4639.18 2539.55 4733.39C2572.5 4827.61 2696.98 5182.2 2814.16 5521.38C3063.14 6233.99 3376.2 7133.33 3551.92 7631.8C3619.63 7821.95 3678.14 7972.66 3683.52 7965.77C3690.7 7958.87 3753.02 7780.15 3824.19 7567.08C3895.36 7353.99 3977.25 7115.13 4007.54 7034.35C4036.03 6953.57 4069.82 6848.76 4084.04 6802.36C4098.25 6754.26 4139.15 6627.11 4178.33 6518.84C4217.52 6410.56 4286.92 6204.35 4331.37 6063.46C4377.62 5920.84 4431.03 5766.18 4448.85 5719.77C4466.67 5671.64 4534.29 5470.59 4600.11 5272.97C4665.94 5073.64 4788.74 4711.06 4872.4 4465.32C5112.62 3750.46 5217.64 3442.86 5356.44 3030.44C5427.61 2817.36 5507.7 2581.93 5534.42 2506.32C5614.55 2281.19 5730.13 1918.63 5730 1891.17C5729.92 1875.74 5613.85 1764.75 5472.44 1641.86L5213.22 1420L3630.07 1425.56C2759.97 1429.54 2045.15 1439.69 2041.59 1448.29Z" fill="#2F2D51"/>
<g filter="url(#filter0_d_402_33)">
<path d="M19973.1 4324.64L19978.2 5484L20269.6 5482.51L20561.1 5481.02L20557.4 4620.84L20553.7 3760.66L20915.8 3758.81L21278 3756.96L21281.8 4617.13L21285.5 5477.32L21577.1 5475.83L21868.6 5474.34L21868.3 4617.88L21869.9 3763.28L22232.2 3761.42L22594.3 3759.57L22601.5 4610.39L22608.8 5461.21L22891.5 5465.37L23176 5467.65L23172.1 4566.33C23169.6 3990.38 23160.9 3635.13 23148.4 3588.44C23103.3 3411.02 23012.7 3291.81 22858.7 3208.44L22756 3151L21362 3158.13L19968 3165.26L19973.1 4324.64Z" fill="#2F2D51"/>
</g>
<g filter="url(#filter1_d_402_33)">
<path d="M18907.9 2539.85L18914.5 2844.59L19202.7 2848.73L19489 2851L19487.8 2542.5L19486.4 2234L19194.6 2235.49L18903 2236.98L18907.9 2539.85Z" fill="#2F2D51"/>
</g>
<g filter="url(#filter2_d_402_33)">
<path d="M18898.1 4280.99L18903.1 5440L19194.1 5438.51L19485 5437.02L19479.9 4278.01L19475 3119L19183.9 3120.49L18893 3121.98L18898.1 4280.99Z" fill="#2F2D51"/>
</g>
<g filter="url(#filter3_d_402_33)">
<path d="M16002.1 4307.78L16007.2 5467L16298.5 5465.51L16589.9 5464.02L16586.2 4603.95L16582.4 3743.89L17117.6 3744.89L17650.9 3747.77L17659.9 4602.2L17667.3 5458.5L17958.6 5457.01L18250 5455.53L18246.3 4599.2C18244.2 4129.9 18235.3 3696.17 18224.4 3636.39C18200.8 3486.93 18142 3369.43 18042.8 3282.06C17883.2 3137.03 17918.5 3140.6 16903 3145.79L15997 3148.56L16002.1 4307.78Z" fill="#2F2D51"/>
</g>
<g filter="url(#filter4_d_402_33)">
<path d="M13594.5 3177.36C13481.8 3237.8 13381.6 3343.04 13325.6 3461.16C13283.6 3547.41 13281.9 3569.85 13283.2 3861.61C13284.4 4145.9 13288.1 4177.67 13325.6 4256.03C13409.3 4433.28 13572.3 4555.89 13766.6 4588.55C13823.2 4599.5 14105.8 4605.53 14395.4 4604.04L14921.5 4601.35L14916.7 4713.6L14911.9 4827.71L14391 4830.37C13884.3 4832.96 13870.2 4831.17 13857.6 4793.82C13845.1 4758.35 13829.2 4756.57 13559 4757.95L13273 4759.41L13282.4 4894.03C13297.5 5110.9 13413.1 5299.21 13593.6 5393.67L13678.5 5440L14393.7 5436.34C15101.7 5432.71 15108.8 5432.67 15189.8 5389.24C15297.2 5332.58 15408 5216.06 15456.9 5107.33C15491.9 5026.73 15495.3 4991.18 15494 4701.29C15492.8 4426.35 15487.3 4374.02 15458.9 4318.05C15407.2 4217.32 15313 4101.84 15244 4057.31C15116.5 3973.8 15031.8 3964.88 14426 3967.99L13855.7 3970.9L13860.6 3853.05L13865.3 3737.07L14389.7 3728.77L14914.1 3722.35L14919.6 3763.47C14925.1 3806.46 14926.9 3806.44 15214.7 3804.98L15506 3803.49L15500.1 3681.94C15492.1 3459.42 15365.9 3261.82 15173.1 3169.29L15081.1 3123L14381.8 3126.58L13684.4 3130.14L13594.5 3177.36Z" fill="#2F2D51"/>
</g>
<g filter="url(#filter5_d_402_33)">
<path d="M10368.3 3433.94L10369.6 3732.99L11199.7 3728.74L12029.9 3724.5L12030.4 3846L12030.9 3967.49L11223.8 3971.61C10778.7 3973.9 10404.3 3983.28 10391.9 3992.69C10372.6 4005.88 10369.5 4103.09 10376.5 4501.19C10383.9 4987.15 10385.7 4996.48 10430.3 5099.06C10489.2 5227.74 10599.2 5348.66 10709 5400.45C10790.4 5441.15 10809.8 5441.05 11707.1 5442.06L12622 5443L12612.6 4502.84C12603.3 3588.86 12601.5 3560.83 12565.7 3476.91C12515.8 3365.01 12418.1 3251.49 12313.7 3186.6L12230.4 3134.68L11299.6 3133.84L10367 3133L10368.3 3433.94ZM12034 4668.42L12034.7 4827.3L11496 4830.05L10957.3 4832.81L10956.6 4673.94L10955.9 4515.05L11494.6 4512.3L12033.3 4509.55L12034 4668.42Z" fill="#2F2D51"/>
</g>
<g filter="url(#filter6_d_402_33)">
<path d="M7150.86 2571C7150.9 2580.34 7149.74 2720.55 7150.46 2885.05L7150 3184.17L7681.75 3187.05L8213.48 3188.07L8218.42 4319.04L8223.35 5450L8520.11 5444.75L8815.09 5437.62L8815.47 4310.38L8814.1 3185L9344.05 3182.29L9874 3179.58L9872.61 2861.79L9871.22 2544L8511.01 2550.96C7763.78 2554.78 7150.82 2563.52 7150.86 2571Z" fill="#2F2D51"/>
</g>
<defs>
<filter id="filter0_d_402_33" x="19964" y="3151" width="3216" height="2341" filterUnits="userSpaceOnUse" color-interpolation-filters="sRGB">
<feFlood flood-opacity="0" result="BackgroundImageFix"/>
<feColorMatrix in="SourceAlpha" type="matrix" values="0 0 0 0 0 0 0 0 0 0 0 0 0 0 0 0 0 0 127 0" result="hardAlpha"/>
<feOffset dy="4"/>
<feGaussianBlur stdDeviation="2"/>
<feComposite in2="hardAlpha" operator="out"/>
<feColorMatrix type="matrix" values="0 0 0 0 0 0 0 0 0 0 0 0 0 0 0 0 0 0 0.25 0"/>
<feBlend mode="normal" in2="BackgroundImageFix" result="effect1_dropShadow_402_33"/>
<feBlend mode="normal" in="SourceGraphic" in2="effect1_dropShadow_402_33" result="shape"/>
</filter>
<filter id="filter1_d_402_33" x="18899" y="2234" width="594" height="625" filterUnits="userSpaceOnUse" color-interpolation-filters="sRGB">
<feFlood flood-opacity="0" result="BackgroundImageFix"/>
<feColorMatrix in="SourceAlpha" type="matrix" values="0 0 0 0 0 0 0 0 0 0 0 0 0 0 0 0 0 0 127 0" result="hardAlpha"/>
<feOffset dy="4"/>
<feGaussianBlur stdDeviation="2"/>
<feComposite in2="hardAlpha" operator="out"/>
<feColorMatrix type="matrix" values="0 0 0 0 0 0 0 0 0 0 0 0 0 0 0 0 0 0 0.25 0"/>
<feBlend mode="normal" in2="BackgroundImageFix" result="effect1_dropShadow_402_33"/>
<feBlend mode="normal" in="SourceGraphic" in2="effect1_dropShadow_402_33" result="shape"/>
</filter>
<filter id="filter2_d_402_33" x="18889" y="3119" width="600" height="2329" filterUnits="userSpaceOnUse" color-interpolation-filters="sRGB">
<feFlood flood-opacity="0" result="BackgroundImageFix"/>
<feColorMatrix in="SourceAlpha" type="matrix" values="0 0 0 0 0 0 0 0 0 0 0 0 0 0 0 0 0 0 127 0" result="hardAlpha"/>
<feOffset dy="4"/>
<feGaussianBlur stdDeviation="2"/>
<feComposite in2="hardAlpha" operator="out"/>
<feColorMatrix type="matrix" values="0 0 0 0 0 0 0 0 0 0 0 0 0 0 0 0 0 0 0.25 0"/>
<feBlend mode="normal" in2="BackgroundImageFix" result="effect1_dropShadow_402_33"/>
<feBlend mode="normal" in="SourceGraphic" in2="effect1_dropShadow_402_33" result="shape"/>
</filter>
<filter id="filter3_d_402_33" x="15993" y="3144" width="2261" height="2331" filterUnits="userSpaceOnUse" color-interpolation-filters="sRGB">
<feFlood flood-opacity="0" result="BackgroundImageFix"/>
<feColorMatrix in="SourceAlpha" type="matrix" values="0 0 0 0 0 0 0 0 0 0 0 0 0 0 0 0 0 0 127 0" result="hardAlpha"/>
<feOffset dy="4"/>
<feGaussianBlur stdDeviation="2"/>
<feComposite in2="hardAlpha" operator="out"/>
<feColorMatrix type="matrix" values="0 0 0 0 0 0 0 0 0 0 0 0 0 0 0 0 0 0 0.25 0"/>
<feBlend mode="normal" in2="BackgroundImageFix" result="effect1_dropShadow_402_33"/>
<feBlend mode="normal" in="SourceGraphic" in2="effect1_dropShadow_402_33" result="shape"/>
</filter>
<filter id="filter4_d_402_33" x="13269" y="3123" width="2241" height="2325" filterUnits="userSpaceOnUse" color-interpolation-filters="sRGB">
<feFlood flood-opacity="0" result="BackgroundImageFix"/>
<feColorMatrix in="SourceAlpha" type="matrix" values="0 0 0 0 0 0 0 0 0 0 0 0 0 0 0 0 0 0 127 0" result="hardAlpha"/>
<feOffset dy="4"/>
<feGaussianBlur stdDeviation="2"/>
<feComposite in2="hardAlpha" operator="out"/>
<feColorMatrix type="matrix" values="0 0 0 0 0 0 0 0 0 0 0 0 0 0 0 0 0 0 0.25 0"/>
<feBlend mode="normal" in2="BackgroundImageFix" result="effect1_dropShadow_402_33"/>
<feBlend mode="normal" in="SourceGraphic" in2="effect1_dropShadow_402_33" result="shape"/>
</filter>
<filter id="filter5_d_402_33" x="10363" y="3133" width="2263" height="2318" filterUnits="userSpaceOnUse" color-interpolation-filters="sRGB">
<feFlood flood-opacity="0" result="BackgroundImageFix"/>
<feColorMatrix in="SourceAlpha" type="matrix" values="0 0 0 0 0 0 0 0 0 0 0 0 0 0 0 0 0 0 127 0" result="hardAlpha"/>
<feOffset dy="4"/>
<feGaussianBlur stdDeviation="2"/>
<feComposite in2="hardAlpha" operator="out"/>
<feColorMatrix type="matrix" values="0 0 0 0 0 0 0 0 0 0 0 0 0 0 0 0 0 0 0.25 0"/>
<feBlend mode="normal" in2="BackgroundImageFix" result="effect1_dropShadow_402_33"/>
<feBlend mode="normal" in="SourceGraphic" in2="effect1_dropShadow_402_33" result="shape"/>
</filter>
<filter id="filter6_d_402_33" x="7146" y="2544" width="2732" height="2914" filterUnits="userSpaceOnUse" color-interpolation-filters="sRGB">
<feFlood flood-opacity="0" result="BackgroundImageFix"/>
<feColorMatrix in="SourceAlpha" type="matrix" values="0 0 0 0 0 0 0 0 0 0 0 0 0 0 0 0 0 0 127 0" result="hardAlpha"/>
<feOffset dy="4"/>
<feGaussianBlur stdDeviation="2"/>
<feComposite in2="hardAlpha" operator="out"/>
<feColorMatrix type="matrix" values="0 0 0 0 0 0 0 0 0 0 0 0 0 0 0 0 0 0 0.25 0"/>
<feBlend mode="normal" in2="BackgroundImageFix" result="effect1_dropShadow_402_33"/>
<feBlend mode="normal" in="SourceGraphic" in2="effect1_dropShadow_402_33" result="shape"/>
</filter>
</defs>
</svg>
